# xmcd
# 
# Track frame offsets:
#     150
#     17822
#     43432
#     63762
#     87682
#     104250
#     128057
#     144752
#     172122
#     196370
#     217747
#     237395
#     254420
#     268437
#     285182
#     316340
# 
# Disc length: 4440
# 
# Revision: 2
# Processed by: cddbd v1.5.2PL0 Copyright (c) Steve Scherf et al.
# Submitted via: fre:ac v1.0.17
# 
DISCID=ed115610
DTITLE=Sex Machineguns - 「マシンガンズの集い」ザ・ベスト
DYEAR=2003
DGENRE=Heavy Metal
TTITLE0=みかんのうた〜ライブ〜
TTITLE1=ファミレス・ボンバー
TTITLE2=BURN〜愛の炎を燃やせ〜
TTITLE3=TEKKEN?
TTITLE4=狼とキリギリス
TTITLE5=犬の生活
TTITLE6=illusion city
TTITLE7=Iron Cross
TTITLE8=そこに、あなたが．．．．．
TTITLE9=さよなら。まぼろし。
TTITLE10=American Z
TTITLE11=食べたい なめたい 危険地帯
TTITLE12=ONIGUNSOW
TTITLE13=S.H.R.〜セクシーヒーローレヴォリューション〜
TTITLE14=桜島
TTITLE15=data
EXTD=
EXTT0=
EXTT1=
EXTT2=
EXTT3=
EXTT4=
EXTT5=
EXTT6=
EXTT7=
EXTT8=
EXTT9=
EXTT10=
EXTT11=
EXTT12=
EXTT13=
EXTT14=
EXTT15=
PLAYORDER=
